<?xml version="1.0" standalone="no"?><!DOCTYPE svg PUBLIC "-//W3C//DTD SVG 1.1//EN" "http://www.w3.org/Graphics/SVG/1.1/DTD/svg11.dtd"><svg t="1483095690658" class="icon" style="" viewBox="0 0 1024 1024" version="1.1" xmlns="http://www.w3.org/2000/svg" p-id="1429" xmlns:xlink="http://www.w3.org/1999/xlink" width="200" height="200"><defs><style type="text/css"></style></defs><path d="M293.662785 399.662469c-36.871769 0-66.788126 29.92659-66.788126 66.788126 0 36.894282 29.916357 66.789149 66.788126 66.789149 36.873816 0 66.789149-29.893844 66.789149-66.789149C360.45091 429.589059 330.535577 399.662469 293.662785 399.662469M516.290211 399.662469c-36.872792 0-66.789149 29.92659-66.789149 66.788126 0 36.894282 29.916357 66.789149 66.789149 66.789149 36.872792 0 66.789149-29.893844 66.789149-66.789149C583.07936 429.589059 553.163003 399.662469 516.290211 399.662469M516.290211 65.720817c-270.501784 0-489.780953 179.439812-489.780953 400.729777 0 108.563578 52.960189 206.876698 138.641617 279.023878l-49.590442 210.758098 263.327384-105.304348c43.633776 10.381441 89.660042 16.252149 137.402393 16.252149 270.501784 0 489.780953-179.38353 489.780953-400.729777C1006.071164 245.160629 786.791995 65.720817 516.290211 65.720817M516.290211 822.655296c-42.438555 0-85.181031-5.065366-127.054721-15.06716-3.412726-0.804319-6.891967-1.216711-10.348696-1.216711-5.631254 0-11.261485 1.065262-16.523325 3.193739l-183.841052 73.5399 29.958312-127.434367c3.869121-16.338107-1.826602-33.438577-14.653745-44.233434C114.647645 644.760676 71.035358 557.731554 71.035358 466.450594c0-196.397019 199.75551-356.204701 445.254853-356.204701 245.520833 0 445.254853 159.806659 445.254853 356.204701C961.545064 662.859893 761.811044 822.655296 516.290211 822.655296M738.917638 399.662469c-36.872792 0-66.788126 29.92659-66.788126 66.788126 0 36.894282 29.91431 66.789149 66.788126 66.789149 36.871769 0 66.789149-29.893844 66.789149-66.789149C805.705763 429.589059 775.789407 399.662469 738.917638 399.662469" p-id="1430" fill="#6d8ba7"></path></svg>