<?xml version="1.0" standalone="no"?><!DOCTYPE svg PUBLIC "-//W3C//DTD SVG 1.1//EN" "http://www.w3.org/Graphics/SVG/1.1/DTD/svg11.dtd"><svg t="1483096538498" class="icon" style="" viewBox="0 0 1024 1024" version="1.1" xmlns="http://www.w3.org/2000/svg" p-id="2150" xmlns:xlink="http://www.w3.org/1999/xlink" width="200" height="200"><defs><style type="text/css"></style></defs><path d="M258.212978 829.218133c-38.857387 0-70.479644-31.626809-70.479644-70.493298l0-245.009067c0-39.999716 32.932978-75.093333 70.479644-75.093333l68.920889 0c85.946596 0 150.751004-65.995662 150.751004-153.506702l0-18.071324c0-37.404444 33.888711-70.208853 72.510578-70.208853l1.839787 0c29.622044 0 56.858169 19.635769 66.22208 47.742293l4.573867 12.688498c13.858133 41.542542 15.635342 85.328782 5.217849 126.9248l-2.310827 9.706382c-0.692907 6.293049-3.760356 17.439858-8.835982 28.604871l148.995413 0c21.839644 0 42.071609 10.230898 55.506489 28.0576 13.582791 18.039467 18.017849 41.586916 11.867022 62.995342l-75.333404 263.084942c-8.421831 30.892942-36.404338 52.577849-67.991324 52.577849L258.208427 829.218133 258.212978 829.218133zM258.212978 474.591004c-17.737956 0-34.511076 19.013404-34.511076 39.129316l0 245.004516c0 19.044124 15.485156 34.533831 34.511076 34.533831l431.942542 0c15.418027 0 29.129387-10.808889 33.355093-26.292907l75.400533-263.325013c3.053796-10.626844 0.799858-22.373262-6.026809-31.439076-6.572942-8.729031-16.329387-13.729564-26.7776-13.729564L563.16928 458.472107 563.16928 422.5024l11.844267 0c5.595591-4.275769 14.728533-25.022009 15.129031-31.52896l0-0.77824 0.302649-2.48832 2.870613-12.058169c8.791609-35.124338 7.306809-71.933724-4.253013-106.604089l-4.581831-12.689636c-4.667164-13.999218-17.884729-23.563378-32.244622-23.563378l-1.835236 0c-18.791538 0-36.54656 16.643413-36.54656 34.248249l0 18.071324c0 108.013796-80.275911 189.47072-186.71616 189.47072l-68.919751 0L258.212978 474.591004zM690.160071 815.919787 258.217529 815.919787c-31.533511 0-57.182436-25.658027-57.182436-57.199502L201.035093 513.715769c0-32.925013 26.720711-61.796124 57.182436-61.796124l68.919751 0c93.520782 0 164.040249-71.71072 164.040249-166.79936l0-18.066773c0-30.328604 27.675307-56.92416 59.222471-56.92416l1.835236 0c23.98208 0 46.031076 15.89248 53.608676 38.652587l4.67968 12.991147c12.968391 38.87104 14.626133 80.049493 4.831004 119.191324l-2.569102 10.795236c-0.417564 7.404658-7.684551 30.800782-19.360427 44.039964l172.671431 0c17.631004 0 33.98656 8.302364 44.893298 22.764658 11.07968 14.716018 14.716018 33.902364 9.706382 51.320604l-75.342507 263.102009c-6.884693 25.257529-29.595876 42.937458-55.208391 42.937458L690.160071 815.919787zM258.212978 461.297209c-25.017458 0-47.803733 24.983324-47.803733 52.423111l0 245.004516c0 26.369138 21.443698 47.821938 47.803733 47.821938l431.942542 0c21.39136 0 40.382009-14.840036 46.177849-36.084622l75.359573-263.164587c4.196124-14.604516 1.137778-30.710898-8.190862-43.093333-9.106773-12.097991-22.737351-19.030471-37.395342-19.030471L576.466489 445.17376l0-9.378702c12.928569 0 26.964196-35.488427 26.964196-44.679396l0.128569-1.079751 2.69312-11.302684c9.373013-37.453369 7.7824-76.813653-4.581831-113.884729l-4.684231-12.991147c-6.360178-19.083947-24.737564-32.345884-44.751076-32.345884l-1.835236 0c-26.084693 0-49.844907 22.653156-49.844907 47.542044l0 18.071324c0 100.439609-74.559716 176.176924-173.425778 176.176924l-68.920889 0L258.212978 461.297209zM334.675058 813.098098c-9.914596 0-17.985991-8.062293-17.985991-17.982578L316.689067 472.723911c0-9.910044 8.075947-17.98144 17.985991-17.98144 9.911182 0 17.982578 8.074809 17.982578 17.98144l0 322.391609C352.657636 805.031253 344.590791 813.098098 334.675058 813.098098L334.675058 813.098098zM334.675058 799.799751c-2.595271 0-4.688782-2.093511-4.688782-4.688782L329.986276 472.723911c0-2.595271 2.093511-4.688782 4.688782-4.688782 2.596409 0 4.68992 2.093511 4.68992 4.688782l0 322.387058C339.364978 797.701689 337.271467 799.799751 334.675058 799.799751L334.675058 799.799751zM334.675058 799.799751" p-id="2151" fill="#6d8ba7"></path></svg>